<?xml version="1.0" encoding="UTF-8"?>
<svg id="Capa_2" data-name="Capa 2" xmlns="http://www.w3.org/2000/svg" viewBox="0 0 427.97 98.79">
  <defs>
    <style>
      .cls-1, .cls-2, .cls-3 {
        isolation: isolate;
      }

      .cls-2 {
        letter-spacing: 0em;
      }

      .cls-2, .cls-3 {
        font-family: Montserrat-Medium, Montserrat;
        font-size: 16.71px;
        font-weight: 500;
      }

      .cls-2, .cls-3, .cls-4 {
        fill: #1d1d1b;
      }

      .cls-4 {
        stroke-width: 0px;
      }
    </style>
  </defs>
  <path class="cls-4" d="m63.62,70.9c6.87,12.24,21.87,5.08,22.23,5.49-5.04,6.48-8.78,9.89-17.78,9.89-10.61,0-17.73-7.62-17.73-18.59s7.11-18.52,17.73-18.52c15.65,0,16.12,14.44-5.22,20.32.24.46.48.93.78,1.4Zm-4.04-18.25c-3.02,2.21-1.43,7.89,2.49,15.43,4.98-1.14,8.89-5.68,5.81-11.3-2.49-4.54-6.04-5.74-8.3-4.14Z"/>
  <path class="cls-4" d="m91.06,54.77c3.5-.93,6.7-5.35,11.26-5.35,10.26,0,15.53,7.68,14.05,18.11-.7,5.35-1.07,9.09,1.24,11.36,1.54,1.54,6.28,0,6.28,0-3.97,5.88-14.22,11.03-19.26,3.94-2.85-4.07-2.25-9.82-1.48-15.71,1.84-13.7-6.93-11.76-7-9.09v28.01h-12.99v-36.17s4.45,5.81,7.89,4.89h0Z"/>
  <path class="cls-4" d="m125.84,77.24c4.09,0,5.57-8.08,10.91-8.08,7.7,0,8.18,9.23,7.35,16.58,0,0-1.43-4.81-4.09-4.81-2.91,0-3.2,5.35-8.42,5.35s-10.31-3.08-10.31-14.58v-19.2c-1.38-.44-2.76-.88-4.14-1.32,1.43-.32,2.87-.65,4.3-.98,1.99-.41,5.89-1.55,9.42-5.17,1.55-1.59,2.62-3.24,3.35-4.61v9.23l8.83,1.54-8.83.62v9.6c0,8.63-10.79,15.85-8.35,15.85v-.03h-.02Z"/>
  <path class="cls-4" d="m179.84,67.5c-.78,5.35-1.07,9.09,1.24,11.36,1.54,1.54,6.28,0,6.28,0-4.14,6.22-15.24,11.36-19.86,3.08-.36,2.54-1.89,4.34-6.87,4.34-10.55,0-15.36-3.74-15.36-10.63s5.39-10.63,16.48-10.63c1.84,0,3.5.06,5.04.27,1.43-12.1-.41-15.04-4.14-13.84-3.91,1.28-1.19,12.97-8.89,12.97-5.04,0-7.47-3.47-6.41-14.58,0,0,2.19,4.34,4.14,4.34,3.73,0,7.47-4.81,14.28-4.81,10.2,0,15.53,7.68,14.05,18.11h0v.02Zm-13.22-.4v-.27c-3.08-.46-5.98-.4-7.65.54-2.32,1.28-2.61,5.02-.94,9.62,2.13,6.08,4.69,8.02,7,6.75,1.43-.73.94-5.35.94-9.42.05-2.27.29-4.75.65-7.22Z"/>
  <path class="cls-4" d="m217.89,75.25c-3.85,6.62-7.76,11.03-16.77,11.03-10.55,0-17.66-7.62-17.66-18.59s7.59-18.52,16.89-18.52c5.52,0,8.24,5.28,11.2,5.28,2.19,0,4.09-4.81,4.09-4.81.89,7.35-1.24,16.58-8.95,16.58-9.96,0-8.3-16.58-13.98-13.57-3.67,1.94-1.01,9.29,4.04,18.25,7.47,13.37,21.17,4.34,21.17,4.34h-.02Z"/>
  <path class="cls-4" d="m268.31,67.69c0,10.96-7.11,18.59-17.66,18.59s-17.73-7.62-17.73-18.59,7.11-18.52,17.73-18.52,17.66,7.62,17.66,18.52Zm-13.28-3.14c-5.04-8.96-9.48-14.31-12.86-11.9-3.38,2.47-1.01,9.29,4.04,18.25,5.04,8.9,9.48,14.24,12.86,11.83,3.44-2.4.94-9.29-4.04-18.18h0Z"/>
  <path class="cls-4" d="m277.51,54.77c3.5-.93,6.7-5.35,11.26-5.35,10.26,0,15.53,7.68,14.05,18.11-.7,5.35-1.07,9.09,1.24,11.36,1.54,1.54,6.28,0,6.28,0-3.97,5.88-14.22,11.03-19.26,3.94-2.85-4.07-2.25-9.82-1.48-15.71,1.84-13.7-1.24-15.64-4.74-14.37-1.72.6-2.2,2.6-2.25,5.28v28.01h-12.99v-36.17s4.45,5.81,7.89,4.89h0Z"/>
  <path class="cls-4" d="m318.61,70.9c6.87,12.24,21.87,5.08,22.23,5.49-5.04,6.48-8.78,9.89-17.78,9.89-10.61,0-17.73-7.62-17.73-18.59s7.11-18.52,17.73-18.52c15.65,0,16.12,14.44-5.22,20.32.24.46.48.93.78,1.4Zm-4.04-18.25c-3.02,2.21-1.43,7.89,2.49,15.43,4.98-1.14,8.89-5.68,5.81-11.3-2.49-4.54-6.04-5.74-8.3-4.14Z"/>
  <path class="cls-4" d="m363.78,73.57c-.18,6.42-2.91,12.7-10.37,12.7-5.39,0-6.93-4.34-11.02-4.34-2.49,0-5.15,3.88-5.15,3.88,0-3.28.18-12.5,6.46-12.5,7.7,0,7.65,11.43,11.8,11.03,1.48-.13,2.78-1.74,2.32-4.07-.53-2.54-2.66-5.41-9.24-6.82-5.57-1.21-11.5-5.41-11.68-13.03-.18-5.74,3.97-11.23,8.71-11.23,5.39,0,7.52,3.47,11.68,3.47,2.25,0,5.75-3.01,5.75-3.01,0,3.22-1.13,10.49-6.22,10.49-4.69,0-7.11-9.29-11.2-9.29-3.5,0-4.86,5.22,3.67,7.62,9.01,2.6,14.76,6.62,14.52,15.1h0Z"/>
  <path class="cls-4" d="m390.7,73.57c-.18,6.42-2.91,12.7-10.37,12.7-5.39,0-6.93-4.34-11.02-4.34-2.49,0-5.15,3.88-5.15,3.88,0-3.28.18-12.5,6.46-12.5,7.7,0,7.65,11.43,11.8,11.03,1.48-.13,2.78-1.74,2.32-4.07-.53-2.54-2.66-5.41-9.24-6.82-5.57-1.21-11.5-5.41-11.68-13.03-.18-5.74,3.97-11.23,8.71-11.23,5.39,0,7.52,3.47,11.68,3.47,2.25,0,5.75-3.01,5.75-3.01,0,3.22-1.13,10.49-6.22,10.49-4.69,0-7.11-9.29-11.2-9.29-3.5,0-4.86,5.22,3.67,7.62,9.01,2.6,14.76,6.62,14.52,15.1h0Z"/>
  <path class="cls-4" d="m13.34,37.12c0-4.89,2.63-15.14,15.23-15.14,19.97,0,35.62,10.81,51.45,9.97,5.84-.28,11.09-9.31,11.09-9.31,0,17.3-11.93,23.69-20.31,23.69-14.89,0-27.84-4.23-37.99-6.3,1.94,16.17,16.17,6.48,16.17,17.77v28.49h-18.53v-46.63c-2.88-.47-5.42-.75-7.7-.57-4.23.28-3.72,9.02-3.72,9.02-3.13-2.82-5.67-6.21-5.67-11h0l-.02.02Z"/>
  <g>
    <path class="cls-4" d="m218.95,54.86c.94,1.4,2.91,2.54,6.28,3.14,3.15.54,6.7.54,6.7,5.28v22.99h-12.99v-31.41h0Z"/>
    <ellipse class="cls-4" cx="225.44" cy="44.74" rx="8.63" ry="9.73"/>
  </g>
  <g class="cls-1">
    <text class="cls-3" transform="translate(132.98 32.25) scale(.8 1)"><tspan x="0" y="0">TIEN</tspan></text>
    <text class="cls-2" transform="translate(164.71 32.25) scale(.8 1)"><tspan x="0" y="0">D</tspan></text>
    <text class="cls-3" transform="translate(175.6 32.25) scale(.8 1)"><tspan x="0" y="0">A</tspan></text>
  </g>
  <g class="cls-1">
    <text class="cls-3" transform="translate(132.98 32.25) scale(.8 1)"><tspan x="0" y="0">TIEN</tspan></text>
    <text class="cls-2" transform="translate(164.71 32.25) scale(.8 1)"><tspan x="0" y="0">D</tspan></text>
    <text class="cls-3" transform="translate(175.6 32.25) scale(.8 1)"><tspan x="0" y="0">A</tspan></text>
  </g>
</svg>